Coordinates
version=1
nRows=20
nColumns=34
inDegrees=yes

Units are S.I. units (second, meters, Newtons, ...)
If the header above contains a line with 'inDegrees', this indicates whether rotational values are in degrees (yes) or radians (no).

endheader
time	pelvis_tilt	pelvis_list	pelvis_rotation	pelvis_tx	pelvis_ty	pelvis_tz	hip_flexion_r	hip_adduction_r	hip_rotation_r	knee_angle_r	ankle_angle_r	subtalar_angle_r	mtp_angle_r	hip_flexion_l	hip_adduction_l	hip_rotation_l	knee_angle_l	ankle_angle_l	subtalar_angle_l	mtp_angle_l	lumbar_extension	lumbar_bending	lumbar_rotation	arm_flex_r	arm_add_r	arm_rot_r	elbow_flex_r	pro_sup_r	arm_flex_l	arm_add_l	arm_rot_l	elbow_flex_l	pro_sup_l
      1.70000000	      2.70701967	      4.03780045	     17.45953169	      0.02800561	      1.31942544	     -0.07080542	     -8.86546567	     -1.14404456	     -7.65406294	      3.28554029	      6.22358008	    -14.93708452	      0.00000000	     -8.82202222	      1.88065082	     12.50940585	      0.96553305	      5.06181147	     -0.79084130	      0.00000000	     -3.71117922	      0.66298029	      3.39653949	      4.00859051	     -8.44098729	     19.37512516	     24.31883858	     79.73759005	      2.89909101	     -6.33203227	     21.29560141	     21.36768972	     75.19009088
      1.71666670	      2.67023816	      3.99106714	     17.29690303	      0.02757148	      1.32017651	     -0.06999585	     -8.70676118	     -1.08525810	     -7.17814586	      3.51683637	      6.78629066	    -14.87212365	      0.00000000	     -8.71126408	      1.83035057	     12.44081319	      1.11525537	      5.27964358	     -0.83662831	      0.00000000	     -3.61692646	      0.73761107	      3.34892650	      3.96555484	     -8.38212440	     19.30818817	     24.22188548	     79.73833288	      2.80880878	     -6.34904536	     21.18148312	     21.41438441	     75.23931340
      1.73333330	      2.67030340	      4.01068219	     17.16618325	      0.02702383	      1.32016590	     -0.06894704	     -8.67472232	     -1.09737808	     -7.19535698	      3.51716041	      6.79197137	    -14.87207232	      0.00000000	     -8.72087040	      1.82481510	     12.43859447	      1.14041678	      5.27123578	     -0.83163574	      0.00000000	     -3.60464783	      0.74606864	      3.28570931	      3.91040060	     -8.39385532	     19.30506249	     24.19962029	     79.73828149	      2.85589305	     -6.33652300	     21.17418026	     21.43354979	     75.24280884
      1.75000000	      2.68125293	      4.02554657	     17.01970640	      0.02570948	      1.32051499	     -0.06696499	     -8.64878159	     -1.08491541	     -7.18026652	      3.55784378	      6.80057332	    -14.85818482	      0.00000000	     -8.70805263	      1.81126787	     12.42671282	      1.17452884	      5.26939759	     -0.83550175	      0.00000000	     -3.58895800	      0.75135370	      3.20227540	      3.85271147	     -8.39748668	     19.30180076	     24.17718197	     79.73808024	      2.93030247	     -6.32632753	     21.16570255	     21.45890084	     75.24723250
      1.76666670	      2.61540433	      3.96696427	     16.70757638	      0.02417841	      1.32243166	     -0.06473512	     -8.22374129	     -1.05901984	     -6.85558957	      3.97068058	      7.01896193	    -14.72308903	      0.00000000	     -8.48179883	      1.77299047	     12.09970495	      1.34765526	      5.29244444	     -0.97309755	      0.00000000	     -3.71452097	      0.83240495	      3.11644621	      4.08406861	     -8.33932077	     19.23270238	     24.13343696	     79.73432540	      3.06429189	     -6.35308905	     21.09631889	     21.49407465	     75.30311985
      1.78333330	      2.63381571	      3.98835817	     16.53506612	      0.02344930	      1.32018846	     -0.06371447	     -8.17976388	     -1.03772145	     -6.82779862	      3.95684114	      7.04953136	    -14.71468244	      0.00000000	     -8.45113376	      1.76453209	     12.11987085	      1.36045269	      5.29942928	     -0.96620579	      0.00000000	     -3.70954395	      0.83577581	      3.01950531	      4.03462029	     -8.35663635	     19.22826302	     24.10706584	     79.73375635	      3.17447011	     -6.34578155	     21.08823139	     21.52472185	     75.30767653
      1.80000000	      2.58047652	      3.89708985	     16.20631278	      0.02360089	      1.32210144	     -0.06077481	     -7.81288709	     -0.92821481	     -6.39723388	      4.24595187	      7.34103315	    -14.57522384	      0.00000000	     -8.19817510	      1.67705596	     12.02185758	      1.49512944	      5.39410668	     -0.99310761	      0.00000000	     -3.89233780	      0.91368251	      2.93810446	      4.32049224	     -8.31106931	     19.17276598	     24.02942441	     79.72887292	      3.42534248	     -6.38511422	     21.04372300	     21.54696299	     75.36237060
      1.81666670	      2.62367985	      3.90315137	     15.97392960	      0.02213469	      1.31951120	     -0.05950934	     -7.73594293	     -0.89370298	     -6.42149302	      4.23280895	      7.37660520	    -14.59024445	      0.00000000	     -8.16081416	      1.67857492	     12.02255327	      1.49700885	      5.41178125	     -0.99300324	      0.00000000	     -3.91344493	      0.93848115	      2.84350652	      4.26057997	     -8.32953033	     19.16939607	     23.99275333	     79.72820546	      3.52498123	     -6.38000822	     21.03722431	     21.57190292	     75.36775983
      1.83333330	      2.65976818	      3.77567277	     15.59820588	      0.02209940	      1.31838468	     -0.05775332	     -7.28728080	     -0.73964370	     -6.15545505	      4.72412859	      7.63741848	    -14.55119995	      0.00000000	     -7.93590552	      1.53264833	     11.68710506	      1.71035009	      5.58986165	     -1.14439034	      0.00000000	     -4.20214006	      1.10213884	      2.80988998	      4.53687942	     -8.28903354	     19.12151764	     23.88026932	     79.72221508	      3.77158058	     -6.42839246	     20.99600707	     21.60540672	     75.42137699
      1.85000000	      2.63298350	      3.75026484	     15.28857892	      0.02075830	      1.31592432	     -0.05542006	     -6.93265316	     -0.69655485	     -5.91004532	      5.02551239	      7.86993693	    -14.51799011	      0.00000000	     -7.73498924	      1.48833095	     11.43520273	      1.91176235	      5.71516543	     -1.22594635	      0.00000000	     -4.36699210	      1.10983140	      2.73553960	      4.66649694	     -8.25534117	     19.08543579	     23.72942122	     79.71684768	      3.99204053	     -6.47731609	     20.95499422	     21.65513190	     75.47865908
      1.86666670	      2.64992376	      3.77388594	     15.06594557	      0.02191995	      1.31864451	     -0.05347697	     -6.86992578	     -0.65616395	     -5.91811868	      5.04147103	      7.88666550	    -14.52469045	      0.00000000	     -7.69968549	      1.44427536	     11.43736099	      1.96678051	      5.70903317	     -1.21991217	      0.00000000	     -4.40737990	      1.08941247	      2.62882128	      4.57465576	     -8.27291325	     19.08402072	     23.68536305	     79.71598787	      4.07295341	     -6.46852933	     20.95118129	     21.67765225	     75.48384372
      1.88333330	      2.65214929	      3.68112631	     14.73228402	      0.01850323	      1.31784598	     -0.05164285	     -6.41600799	     -0.52762082	     -5.69416997	      5.59705723	      7.99611013	    -14.50111384	      0.00000000	     -7.38848241	      1.30606747	     10.96579569	      2.43902469	      5.76435762	     -1.42310863	      0.00000000	     -4.79252468	      1.16704071	      2.50722042	      4.79602166	     -8.18023604	     19.04330409	     23.60075339	     79.70611679	      4.37564759	     -6.56224621	     20.92196719	     21.73233940	     75.53640084
      1.90000000	      2.66109091	      3.69938026	     14.52367285	      0.02051471	      1.31936568	     -0.05092168	     -6.35196823	     -0.49012744	     -5.68437959	      5.61813039	      8.00258918	    -14.50065206	      0.00000000	     -7.37616096	      1.25033024	     10.95312596	      2.53695090	      5.73892050	     -1.42315602	      0.00000000	     -4.83470818	      1.12372065	      2.37682537	      4.68760723	     -8.21459418	     19.03932596	     23.55190501	     79.70460697	      4.45394198	     -6.53542952	     20.92308124	     21.75666018	     75.54196761
      1.91666670	      2.62790920	      3.61953143	     14.19721507	      0.01928276	      1.32033597	     -0.04863655	     -5.93743095	     -0.39295100	     -5.42340203	      6.11877691	      7.99508651	    -14.43140847	      0.00000000	     -6.99904128	      1.15063290	     10.34796874	      3.10039919	      5.58946065	     -1.65665920	      0.00000000	     -5.20329633	      1.20219760	      2.17613059	      4.86433304	     -8.15627472	     18.97445398	     23.45169919	     79.68835643	      4.63691164	     -6.57840327	     20.92747031	     21.78485802	     75.60640005
      1.93333330	      2.63920279	      3.62524714	     13.98516367	      0.02120264	      1.31673272	     -0.04606150	     -5.88236223	     -0.31829700	     -5.41571648	      6.18043193	      7.99049049	    -14.43328125	      0.00000000	     -6.98180555	      1.09087924	     10.32566672	      3.21160396	      5.57187380	     -1.66783986	      0.00000000	     -5.27337456	      1.17444447	      2.04066466	      4.71546207	     -8.17369464	     18.97313121	     23.39377121	     79.68681871	      4.68582613	     -6.56282259	     20.93057224	     21.80219106	     75.61355931
      1.95000000	      2.65219910	      3.51409509	     13.69350452	      0.01992989	      1.31546066	     -0.04443803	     -5.50213774	     -0.14475161	     -5.27189866	      6.67505098	      8.02488742	    -14.50067375	      0.00000000	     -6.61434557	      0.93891203	      9.71450785	      3.86582377	      5.54834207	     -1.99449056	      0.00000000	     -5.62077924	      1.32446323	      1.86761692	      4.81287624	     -8.08030029	     18.91301855	     23.33501590	     79.66954043	      4.82718262	     -6.62010969	     20.94594983	     21.89768575	     75.67675880
      1.96666670	      2.65079073	      3.53400977	     13.46661421	      0.01782828	      1.31677739	     -0.04242512	     -5.41894151	     -0.09009025	     -5.28128990	      6.65787331	      8.03068164	    -14.51301003	      0.00000000	     -6.56104393	      0.89065462	      9.70204089	      3.94518252	      5.52861317	     -2.00360167	      0.00000000	     -5.68795125	      1.28406579	      1.74599882	      4.70752023	     -8.10899905	     18.90791237	     23.29273928	     79.66751221	      4.88771670	     -6.58822975	     20.95129375	     21.92742181	     75.68358870
      1.98333330	      2.54356972	      3.46795300	     13.19914611	      0.01743373	      1.32231931	     -0.03935994	     -4.97844944	      0.02656232	     -4.99607495	      6.90592422	      8.05133588	    -14.49984077	      0.00000000	     -5.93692712	      0.82133303	      9.12860325	      4.76381759	      5.35398077	     -2.31805908	      0.00000000	     -6.05612274	      1.32980731	      1.56799862	      4.89886376	     -8.02018266	     18.83417599	     23.28242974	     79.64723374	      5.10421275	     -6.65664136	     20.97773660	     22.09593986	     75.75392389
      2.00000000	      2.53804920	      3.50305066	     12.97978600	      0.01687643	      1.32124596	     -0.03674756	     -4.89622741	      0.10267332	     -4.97843457	      6.87419787	      8.05050955	    -14.49510976	      0.00000000	     -5.84003700	      0.77402481	      9.11422451	      4.87967965	      5.31556324	     -2.32970088	      0.00000000	     -6.15030339	      1.28493448	      1.44692511	      4.78394725	     -8.02707584	     18.83178943	     23.23989875	     79.64547929	      5.15942999	     -6.62728741	     20.98537894	     22.12883823	     75.76252542
      2.01666670	      1.83338896	      3.37750963	     12.71807035	      0.01565391	      1.31898534	     -0.03463362	     -3.76441099	      0.18228133	     -4.31843376	      7.23882827	      8.15541656	    -14.71408434	      0.00000000	     -4.38241741	      0.78322250	      8.58926934	      6.01166426	      5.06179372	     -3.03343698	      0.00000000	     -5.82658625	      1.23799699	      1.27509492	      4.87015975	     -7.81755393	     18.56591850	     23.02264141	     79.57125107	      5.00254817	     -6.87813051	     21.19433184	     22.99144638	     76.15825847
